# xmcd
#
# Track frame offsets:
#	150
#	31672
#	48169
#	67642
#	85456
#	100601
#	112126
#	124713
#	134903
#
# Disc length: 1971 seconds
#
# Revision: 0
# Processed by: cddbd v1.5.2PL0 Copyright (c) Steve Scherf et al.
# Submitted via: EasyCDDAExtractor 10.0.6.1
#
DISCID=7207b109
DTITLE=Various Artist - Spirit Records Vol.1
DYEAR=1900
DGENRE=Gospel
TTITLE0=Bob Scott - First Look
TTITLE1=Bob Scott 2 - First Look 2
TTITLE2=A Little Bit Of Heaven - The Harvest
TTITLE3=Paul Ott - Don't Cry For Me
TTITLE4=The Mashburns - O What A Shout
TTITLE5=The Diplomats - Tell Me The Story
TTITLE6=The Dotson Family - 40 Days and 40 Nights
TTITLE7=The Gospelaires - Old Fashioned Altar
TTITLE8=Sisters In Christ - Endless Hope
EXTD=
EXTT0=
EXTT1=
EXTT2=
EXTT3=
EXTT4=
EXTT5=
EXTT6=
EXTT7=
EXTT8=
PLAYORDER=
